<?xml version="1.0" encoding="iso-8859-1"?>
<!-- Generator: Adobe Illustrator 19.0.0, SVG Export Plug-In . SVG Version: 6.00 Build 0)  -->
<svg version="1.1" id="Layer_1" xmlns="http://www.w3.org/2000/svg" xmlns:xlink="http://www.w3.org/1999/xlink" x="0px" y="0px"
	 viewBox="0 0 512 512" style="enable-background:new 0 0 512 512;" xml:space="preserve">
<g>
	<rect x="51.859" y="256" style="fill:#FFAD61;" width="245.801" height="245.801"/>
	<rect x="297.663" y="137.271" style="fill:#FFAD61;" width="162.484" height="364.54"/>
	<rect x="51.859" y="10.199" style="fill:#FFAD61;" width="245.801" height="245.801"/>
</g>
<g>
	<rect x="142.472" y="152.886" style="fill:#FFE6B8;" width="113.527" height="61.45"/>
	<polygon style="fill:#FFE6B8;" points="254.824,501.801 185.979,501.801 185.979,440.064 220.401,471.698 254.824,440.064 	"/>
	<polygon style="fill:#FFE6B8;" points="185.979,256 254.824,256 254.824,318.057 220.401,286.39 185.979,318.057 	"/>
	<rect x="340.388" y="338.277" style="fill:#FFE6B8;" width="77.014" height="118.739"/>
</g>
<g>
	<path style="fill:#4D3D36;" d="M41.661,501.801c0,5.632,4.567,10.199,10.199,10.199h245.801H460.14
		c5.632,0,10.199-4.567,10.199-10.199V137.266c0-5.632-4.567-10.199-10.199-10.199H307.86V10.199C307.86,4.567,303.293,0,297.661,0
		H51.86c-5.632,0-10.199,4.567-10.199,10.199C41.661,10.199,41.661,501.801,41.661,501.801z M287.462,245.801H62.06V20.398h225.402
		V245.801z M196.179,266.199h48.446v28.616l-17.317-15.931c-3.904-3.591-9.906-3.591-13.811,0l-17.317,15.931v-28.616H196.179z
		 M62.06,266.199h113.721v51.858c0,4.048,2.395,7.714,6.1,9.339c3.708,1.626,8.024,0.909,11.004-1.834l27.516-25.314l27.516,25.314
		c1.921,1.767,4.397,2.694,6.907,2.694c1.384,0,2.779-0.281,4.097-0.86c3.706-1.627,6.1-5.291,6.1-9.339v-51.858h22.438v225.402
		h-22.438v-51.538c0-4.047-2.393-7.712-6.098-9.338c-3.704-1.626-8.022-0.909-11.002,1.829l-27.521,25.292l-27.521-25.292
		c-2.981-2.738-7.299-3.455-11.002-1.829c-3.706,1.628-6.098,5.291-6.098,9.338v51.538H62.06
		C62.06,491.602,62.06,266.199,62.06,266.199z M244.625,491.602h-48.446v-28.313l17.321,15.918c3.902,3.586,9.9,3.586,13.803,0
		l17.321-15.918v28.313H244.625z M307.86,147.465h142.08v344.136H307.86V147.465z"/>
	<path style="fill:#4D3D36;" d="M256,142.689H142.472c-5.632,0-10.199,4.567-10.199,10.199v61.45
		c0,5.632,4.567,10.199,10.199,10.199H256c5.632,0,10.199-4.567,10.199-10.199v-61.45C266.199,147.256,261.632,142.689,256,142.689z
		 M245.8,204.139h-93.129v-41.052H245.8V204.139z"/>
	<path style="fill:#4D3D36;" d="M156.975,340.946l-28.625-28.625c-3.984-3.982-10.44-3.982-14.425,0l-28.625,28.625
		c-3.983,3.983-3.983,10.441,0,14.425c3.984,3.982,10.44,3.982,14.425,0l11.214-11.214v89.097c0,5.632,4.567,10.199,10.199,10.199
		s10.199-4.567,10.199-10.199v-89.097l11.214,11.214c1.992,1.991,4.602,2.987,7.212,2.987c2.61,0,5.22-0.996,7.212-2.987
		C160.958,351.387,160.958,344.929,156.975,340.946z"/>
	<path style="fill:#4D3D36;" d="M143.515,123.51h85.405c5.632,0,10.199-4.567,10.199-10.199s-4.567-10.199-10.199-10.199h-85.405
		c-5.632,0-10.199,4.567-10.199,10.199S137.882,123.51,143.515,123.51z"/>
	<path style="fill:#4D3D36;" d="M143.515,93.305h43.744c5.632,0,10.199-4.567,10.199-10.199s-4.567-10.199-10.199-10.199h-43.744
		c-5.632,0-10.199,4.567-10.199,10.199S137.882,93.305,143.515,93.305z"/>
	<path style="fill:#4D3D36;" d="M340.392,467.214h77.016c5.632,0,10.199-4.567,10.199-10.199V338.281
		c0-5.632-4.567-10.199-10.199-10.199h-77.016c-5.632,0-10.199,4.567-10.199,10.199v118.734
		C330.193,462.647,334.76,467.214,340.392,467.214z M350.591,348.48h56.618v98.336h-56.618V348.48z"/>
	<path style="fill:#4D3D36;" d="M340.392,307.861h77.045c5.632,0,10.199-4.567,10.199-10.199c0-5.632-4.567-10.199-10.199-10.199
		h-77.045c-5.632,0-10.199,4.567-10.199,10.199C330.193,303.294,334.76,307.861,340.392,307.861z"/>
	<path style="fill:#4D3D36;" d="M390.357,277.656h2.083c5.632,0,10.199-4.567,10.199-10.199c0-5.632-4.567-10.199-10.199-10.199
		h-2.083c-5.632,0-10.199,4.567-10.199,10.199C380.157,273.089,384.725,277.656,390.357,277.656z"/>
	<path style="fill:#4D3D36;" d="M340.392,277.656h19.761c5.632,0,10.199-4.567,10.199-10.199c0-5.632-4.567-10.199-10.199-10.199
		h-19.761c-5.632,0-10.199,4.567-10.199,10.199C330.193,273.089,334.76,277.656,340.392,277.656z"/>
</g>
<g>
</g>
<g>
</g>
<g>
</g>
<g>
</g>
<g>
</g>
<g>
</g>
<g>
</g>
<g>
</g>
<g>
</g>
<g>
</g>
<g>
</g>
<g>
</g>
<g>
</g>
<g>
</g>
<g>
</g>
</svg>
